<svg width="16" height="16" viewBox="0 0 16 16" fill="none" xmlns="http://www.w3.org/2000/svg">
<g id="fluent:building-bank-48-filled">
<path id="Vector" d="M8.44867 1.48232C8.31909 1.38558 8.16171 1.33331 8 1.33331C7.83829 1.33331 7.68091 1.38558 7.55133 1.48232L2.23667 5.44965C1.78667 5.78532 2.02433 6.50032 2.58533 6.50032H13.415C13.9763 6.50032 14.2137 5.78532 13.764 5.44965L8.44867 1.48232ZM8 4.66665C7.82319 4.66665 7.65362 4.59641 7.5286 4.47139C7.40357 4.34636 7.33333 4.17679 7.33333 3.99998C7.33333 3.82317 7.40357 3.6536 7.5286 3.52858C7.65362 3.40355 7.82319 3.33332 8 3.33332C8.17681 3.33332 8.34638 3.40355 8.4714 3.52858C8.59643 3.6536 8.66667 3.82317 8.66667 3.99998C8.66667 4.17679 8.59643 4.34636 8.4714 4.47139C8.34638 4.59641 8.17681 4.66665 8 4.66665ZM2 12.7503C1.99996 12.5205 2.04519 12.2929 2.13312 12.0805C2.22104 11.8682 2.34994 11.6752 2.51245 11.5127C2.67495 11.3501 2.86789 11.2212 3.08023 11.1332C3.29257 11.0453 3.52016 11 3.75 11H12.25C13.2167 11 14 11.7833 14 12.75V13.25C14 13.48 13.8133 13.6663 13.5833 13.6663H2.41667C2.36197 13.6664 2.30779 13.6556 2.25724 13.6347C2.20669 13.6138 2.16075 13.5832 2.12206 13.5445C2.08336 13.5058 2.05267 13.4599 2.03172 13.4094C2.01078 13.3588 2 13.3047 2 13.25V12.7503ZM4.66667 10.3333H3.33333V7.16665H4.66667V10.3333ZM6 7.16665V10.3333H7.33333V7.16665H6ZM8.66667 7.16665V10.3333H10V7.16665H8.66667ZM11.3333 7.16665V10.3333H12.6667V7.16665H11.3333Z" fill="#4E4E4E"/>
</g>
</svg>
