<svg width="17" height="17" viewBox="0 0 17 17" fill="none" xmlns="http://www.w3.org/2000/svg">
<g id="solar:card-bold">
<path id="Vector" fill-rule="evenodd" clip-rule="evenodd" d="M7.09408 3.22949H9.76074C12.2747 3.22949 13.5321 3.22949 14.3127 4.01083C14.8754 4.57283 15.0327 5.38216 15.0767 6.72949H1.77808C1.82208 5.38216 1.97941 4.57283 2.54208 4.01083C3.32274 3.22949 4.58008 3.22949 7.09408 3.22949ZM9.76074 13.8962H7.09408C4.58008 13.8962 3.32274 13.8962 2.54208 13.1148C1.76074 12.3342 1.76074 11.0768 1.76074 8.56283C1.76074 8.26816 1.76074 7.99083 1.76208 7.72949H15.0927C15.0941 7.99083 15.0941 8.26816 15.0941 8.56283C15.0941 11.0768 15.0941 12.3342 14.3127 13.1148C13.5321 13.8962 12.2747 13.8962 9.76074 13.8962ZM4.42741 10.7295C4.2948 10.7295 4.16762 10.7822 4.07386 10.8759C3.98009 10.9697 3.92741 11.0969 3.92741 11.2295C3.92741 11.3621 3.98009 11.4893 4.07386 11.583C4.16762 11.6768 4.2948 11.7295 4.42741 11.7295H7.09408C7.22668 11.7295 7.35386 11.6768 7.44763 11.583C7.5414 11.4893 7.59408 11.3621 7.59408 11.2295C7.59408 11.0969 7.5414 10.9697 7.44763 10.8759C7.35386 10.7822 7.22668 10.7295 7.09408 10.7295H4.42741ZM8.76074 10.7295C8.62813 10.7295 8.50096 10.7822 8.40719 10.8759C8.31342 10.9697 8.26074 11.0969 8.26074 11.2295C8.26074 11.3621 8.31342 11.4893 8.40719 11.583C8.50096 11.6768 8.62813 11.7295 8.76074 11.7295H9.76074C9.89335 11.7295 10.0205 11.6768 10.1143 11.583C10.2081 11.4893 10.2607 11.3621 10.2607 11.2295C10.2607 11.0969 10.2081 10.9697 10.1143 10.8759C10.0205 10.7822 9.89335 10.7295 9.76074 10.7295H8.76074Z" fill="#4E4E4E"/>
</g>
</svg>
