<svg width="40" height="12" viewBox="0 0 40 12" fill="none" xmlns="http://www.w3.org/2000/svg">
<g id="Vector">
<path d="M17.3341 8.75001C16.7277 8.75001 16.1982 8.63687 15.7456 8.41059C15.2931 8.18432 14.9401 7.8449 14.6867 7.39235C14.4423 6.9398 14.3201 6.37411 14.3201 5.69529V1.55445H15.284V5.58668C15.284 6.34696 15.4696 6.9217 15.8407 7.31089C16.2208 7.69104 16.7503 7.88111 17.4291 7.88111C17.9269 7.88111 18.3569 7.78155 18.7189 7.58242C19.09 7.37425 19.3706 7.07557 19.5606 6.68637C19.7598 6.29718 19.8593 5.83105 19.8593 5.28799V1.55445H20.8233V8.68212H19.9001V6.7271L20.0494 7.08009C19.8231 7.60505 19.4701 8.01687 18.9904 8.31556C18.5198 8.60519 17.9677 8.75001 17.3341 8.75001Z" fill="white"/>
<path d="M27.1482 1.48657C27.7275 1.48657 28.2343 1.5997 28.6688 1.82598C29.1123 2.0432 29.4562 2.37809 29.7006 2.83064C29.954 3.28319 30.0807 3.85341 30.0807 4.54128V8.68212H29.1168V4.63632C29.1168 3.88509 28.9267 3.3194 28.5466 2.93925C28.1755 2.55006 27.6505 2.35546 26.9717 2.35546C26.4649 2.35546 26.0214 2.45955 25.6412 2.66772C25.2701 2.86685 24.9805 3.161 24.7723 3.5502C24.5732 3.93034 24.4736 4.39194 24.4736 4.935V8.68212H23.5097V1.55445H24.4329V3.50947L24.2836 3.1429C24.5098 2.62699 24.8719 2.22422 25.3697 1.93459C25.8675 1.63591 26.4603 1.48657 27.1482 1.48657Z" fill="white"/>
<path d="M35.5898 8.75001C34.902 8.75001 34.282 8.59614 33.7299 8.2884C33.1868 7.97162 32.7569 7.54169 32.4401 6.99863C32.1233 6.44652 31.9649 5.81748 31.9649 5.1115C31.9649 4.39647 32.1233 3.76742 32.4401 3.22436C32.7569 2.6813 33.1868 2.2559 33.7299 1.94817C34.2729 1.64043 34.8929 1.48657 35.5898 1.48657C36.2958 1.48657 36.9203 1.64043 37.4634 1.94817C38.0155 2.2559 38.4454 2.6813 38.7532 3.22436C39.07 3.76742 39.2284 4.39647 39.2284 5.1115C39.2284 5.81748 39.07 6.44652 38.7532 6.99863C38.4454 7.54169 38.0155 7.97162 37.4634 8.2884C36.9113 8.59614 36.2868 8.75001 35.5898 8.75001ZM35.5898 7.89468C36.1058 7.89468 36.5628 7.78155 36.9611 7.55527C37.3593 7.31994 37.6716 6.99411 37.8979 6.57776C38.1332 6.15236 38.2508 5.66361 38.2508 5.1115C38.2508 4.55033 38.1332 4.06158 37.8979 3.64523C37.6716 3.22889 37.3593 2.90758 36.9611 2.6813C36.5628 2.44597 36.1103 2.32831 35.6034 2.32831C35.0966 2.32831 34.644 2.44597 34.2458 2.6813C33.8475 2.90758 33.5307 3.22889 33.2954 3.64523C33.0601 4.06158 32.9424 4.55033 32.9424 5.1115C32.9424 5.66361 33.0601 6.15236 33.2954 6.57776C33.5307 6.99411 33.8475 7.31994 34.2458 7.55527C34.644 7.78155 35.092 7.89468 35.5898 7.89468Z" fill="white"/>
<path d="M5.86225 2.96797C5.86225 1.58665 6.98246 0.466797 8.36422 0.466797C9.74598 0.466797 10.8662 1.58665 10.8662 2.96797V5.3201H5.86189L5.86225 2.96797Z" fill="#DA6157"/>
<path d="M0.125367 3.39678C0.125367 4.7781 1.24558 5.89795 2.62734 5.89795C4.0091 5.89795 5.12931 4.7781 5.12931 3.39678V1.04465H0.125L0.125367 3.39678Z" fill="white"/>
<path d="M8.36424 11.8135C9.89717 11.8135 11.1399 10.5712 11.1399 9.03878C11.1399 7.50634 9.89717 6.26405 8.36424 6.26405C6.83131 6.26405 5.58863 7.50634 5.58863 9.03878C5.58863 10.5712 6.83131 11.8135 8.36424 11.8135Z" fill="#DA6157"/>
</g>
</svg>
