<svg width="25" height="25" viewBox="0 0 25 25" fill="none" xmlns="http://www.w3.org/2000/svg">
<g id="mastercard (1) 1" clip-path="url(#clip0_6281_742)">
<path id="Vector" d="M15.6726 18.3935H9.18262V6.7305H15.6726V18.3935Z" fill="#828282"/>
<path id="Vector_2" d="M9.59473 12.5625C9.59473 10.1965 10.7027 8.0895 12.4277 6.7315C11.1217 5.7015 9.50673 5.1435 7.84473 5.1455C3.74773 5.1455 0.427734 8.4665 0.427734 12.5625C0.427734 16.6585 3.74773 19.9795 7.84373 19.9795C9.50673 19.9815 11.1217 19.4235 12.4267 18.3935C10.7027 17.0355 9.59473 14.9285 9.59473 12.5625Z" fill="#C5C9D8"/>
<path id="Vector_3" d="M24.4277 12.5625C24.4277 16.6585 21.1077 19.9795 17.0117 19.9795C15.3487 19.9815 13.7337 19.4235 12.4277 18.3935C14.1527 17.0355 15.2607 14.9285 15.2607 12.5625C15.2607 10.1965 14.1527 8.0895 12.4277 6.7315C13.7337 5.7015 15.3487 5.1435 17.0117 5.1455C21.1077 5.1455 24.4277 8.4665 24.4277 12.5625Z" fill="#F2F2F2"/>
</g>
<defs>
<clipPath id="clip0_6281_742">
<rect width="24" height="24" fill="white" transform="translate(0.427734 0.5625)"/>
</clipPath>
</defs>
</svg>
