<svg width="16" height="16" viewBox="0 0 16 16" fill="none" xmlns="http://www.w3.org/2000/svg">
<g id="solar:square-transfer-horizontal-bold">
<path id="Vector" fill-rule="evenodd" clip-rule="evenodd" d="M1.33301 7.99998C1.33301 4.85731 1.33301 3.28598 2.30901 2.30931C3.28634 1.33331 4.85701 1.33331 7.99967 1.33331C11.1423 1.33331 12.7137 1.33331 13.6897 2.30931C14.6663 3.28665 14.6663 4.85731 14.6663 7.99998C14.6663 11.1426 14.6663 12.714 13.6897 13.69C12.7143 14.6666 11.1423 14.6666 7.99967 14.6666C4.85701 14.6666 3.28567 14.6666 2.30901 13.69C1.33301 12.7146 1.33301 11.1426 1.33301 7.99998ZM11.333 8.83331C11.4348 8.83334 11.5341 8.86442 11.6177 8.9224C11.7014 8.98038 11.7653 9.0625 11.801 9.15779C11.8368 9.25308 11.8426 9.357 11.8177 9.45566C11.7928 9.55433 11.7383 9.64306 11.6617 9.70998L9.37034 11.71C9.27044 11.7972 9.13997 11.8412 9.00764 11.8323C8.8753 11.8234 8.75193 11.7622 8.66467 11.6623C8.57742 11.5624 8.53342 11.4319 8.54236 11.2996C8.5513 11.1673 8.61244 11.0439 8.71234 10.9566L9.99967 9.83331H4.66634C4.53373 9.83331 4.40656 9.78063 4.31279 9.68687C4.21902 9.5931 4.16634 9.46592 4.16634 9.33331C4.16634 9.2007 4.21902 9.07353 4.31279 8.97976C4.40656 8.88599 4.53373 8.83331 4.66634 8.83331H11.333ZM7.33501 4.33798C7.42215 4.43789 7.46605 4.56832 7.45705 4.70058C7.44804 4.83285 7.38688 4.95613 7.28701 5.04331L5.99967 6.16665H11.333C11.4656 6.16665 11.5928 6.21932 11.6866 6.31309C11.7803 6.40686 11.833 6.53404 11.833 6.66665C11.833 6.79925 11.7803 6.92643 11.6866 7.0202C11.5928 7.11397 11.4656 7.16665 11.333 7.16665H4.66634C4.56458 7.16662 4.46525 7.13553 4.38162 7.07755C4.29799 7.01957 4.23404 6.93746 4.19831 6.84217C4.16259 6.74688 4.15679 6.64296 4.18169 6.54429C4.2066 6.44562 4.26101 6.3569 4.33767 6.28998L6.62901 4.28998C6.67849 4.24673 6.73602 4.21366 6.7983 4.19266C6.86058 4.17166 6.92639 4.16315 6.99196 4.16761C7.05753 4.17207 7.12158 4.18941 7.18044 4.21864C7.23931 4.24788 7.29183 4.28843 7.33501 4.33798Z" fill="#4E4E4E"/>
</g>
</svg>
