<svg width="16" height="17" viewBox="0 0 16 17" fill="none" xmlns="http://www.w3.org/2000/svg">
<g id="jam:padlock-alt-f">
<path id="Vector" d="M5.54818 8.24848V4.56315C5.54818 3.85591 5.82913 3.17763 6.32923 2.67753C6.82932 2.17744 7.5076 1.89648 8.21484 1.89648C8.92209 1.89648 9.60037 2.17744 10.1005 2.67753C10.6006 3.17763 10.8815 3.85591 10.8815 4.56315V8.24848C11.4853 8.78855 11.9109 9.49923 12.102 10.2865C12.2931 11.0737 12.2406 11.9004 11.9515 12.6572C11.6625 13.414 11.1504 14.0651 10.4832 14.5245C9.81595 14.9839 9.02495 15.2299 8.21484 15.2299C7.40474 15.2299 6.61374 14.9839 5.94649 14.5245C5.27925 14.0651 4.76722 13.414 4.47816 12.6572C4.18909 11.9004 4.13663 11.0737 4.3277 10.2865C4.51877 9.49923 4.94436 8.78855 5.54818 8.24848ZM6.88151 7.45648C7.30984 7.30567 7.76075 7.22901 8.21484 7.22982C8.68218 7.22982 9.13084 7.30982 9.54818 7.45715V4.56315C9.54818 4.20953 9.4077 3.87039 9.15765 3.62034C8.90761 3.37029 8.56847 3.22982 8.21484 3.22982C7.86122 3.22982 7.52208 3.37029 7.27204 3.62034C7.02199 3.87039 6.88151 4.20953 6.88151 4.56315V7.45715V7.45648ZM8.21484 12.5632C8.56847 12.5632 8.90761 12.4227 9.15765 12.1726C9.4077 11.9226 9.54818 11.5834 9.54818 11.2298C9.54818 10.8762 9.4077 10.5371 9.15765 10.287C8.90761 10.037 8.56847 9.89648 8.21484 9.89648C7.86122 9.89648 7.52208 10.037 7.27204 10.287C7.02199 10.5371 6.88151 10.8762 6.88151 11.2298C6.88151 11.5834 7.02199 11.9226 7.27204 12.1726C7.52208 12.4227 7.86122 12.5632 8.21484 12.5632Z" fill="#0091D8"/>
</g>
</svg>
