<svg width="16" height="16" viewBox="0 0 16 16" fill="none" xmlns="http://www.w3.org/2000/svg">
<g id="solar:hashtag-square-bold">
<g id="Group">
<path id="Vector" d="M9.3948 7.16699L8.8948 8.83366H6.60547L7.10547 7.16699H9.3948Z" fill="#4E4E4E"/>
<path id="Vector_2" fill-rule="evenodd" clip-rule="evenodd" d="M2.30901 2.30965C1.33301 3.28698 1.33301 4.85765 1.33301 8.00031C1.33301 11.143 1.33301 12.7143 2.30901 13.6903C3.28634 14.667 4.85701 14.667 7.99967 14.667C11.1423 14.667 12.7137 14.667 13.6897 13.6903C14.6663 12.715 14.6663 11.143 14.6663 8.00031C14.6663 4.85765 14.6663 3.28632 13.6897 2.30965C12.7143 1.33365 11.1423 1.33365 7.99967 1.33365C4.85701 1.33365 3.28567 1.33365 2.30901 2.30965ZM7.47701 4.18832C7.60394 4.22654 7.71049 4.3136 7.77325 4.43036C7.836 4.54713 7.84983 4.68403 7.81167 4.81098L7.40501 6.16698H9.69434L10.1877 4.52365C10.2293 4.40108 10.3169 4.29944 10.4319 4.24011C10.547 4.18077 10.6805 4.16836 10.8045 4.2055C10.9285 4.24263 11.0333 4.32641 11.0968 4.43921C11.1603 4.55201 11.1776 4.68504 11.145 4.81032L10.7383 6.16698H11.9997C12.1323 6.16698 12.2595 6.21966 12.3532 6.31343C12.447 6.4072 12.4997 6.53437 12.4997 6.66698C12.4997 6.79959 12.447 6.92677 12.3532 7.02053C12.2595 7.1143 12.1323 7.16698 11.9997 7.16698H10.4383L9.93834 8.83365H11.333C11.4656 8.83365 11.5928 8.88633 11.6866 8.98009C11.7803 9.07386 11.833 9.20104 11.833 9.33365C11.833 9.46626 11.7803 9.59343 11.6866 9.6872C11.5928 9.78097 11.4656 9.83365 11.333 9.83365H9.63834L9.14501 11.477C9.10337 11.5995 9.01582 11.7012 8.90077 11.7605C8.78573 11.8199 8.65216 11.8323 8.52815 11.7951C8.40415 11.758 8.29938 11.6742 8.23588 11.5614C8.17238 11.4486 8.1551 11.3156 8.18767 11.1903L8.59434 9.83365H6.30501L5.81167 11.477C5.79476 11.542 5.76491 11.603 5.72391 11.6562C5.68291 11.7095 5.6316 11.7539 5.57304 11.7869C5.51449 11.8198 5.44988 11.8406 5.3831 11.8481C5.31631 11.8555 5.24871 11.8494 5.18434 11.8301C5.11996 11.8109 5.06013 11.7788 5.00843 11.7359C4.95672 11.693 4.91419 11.6401 4.88339 11.5803C4.85259 11.5206 4.83414 11.4553 4.82915 11.3883C4.82416 11.3213 4.83273 11.2539 4.85434 11.1903L5.26101 9.83365H3.99967C3.86707 9.83365 3.73989 9.78097 3.64612 9.6872C3.55235 9.59343 3.49967 9.46626 3.49967 9.33365C3.49967 9.20104 3.55235 9.07386 3.64612 8.98009C3.73989 8.88633 3.86707 8.83365 3.99967 8.83365H5.56101L6.06101 7.16698H4.66634C4.53373 7.16698 4.40656 7.1143 4.31279 7.02053C4.21902 6.92677 4.16634 6.79959 4.16634 6.66698C4.16634 6.53437 4.21902 6.4072 4.31279 6.31343C4.40656 6.21966 4.53373 6.16698 4.66634 6.16698H6.36101L6.85434 4.52365C6.8732 4.46074 6.90426 4.40216 6.94576 4.35126C6.98726 4.30036 7.03839 4.25813 7.09621 4.22699C7.15403 4.19585 7.21742 4.17641 7.28276 4.16977C7.3481 4.16314 7.4141 4.16944 7.47701 4.18832Z" fill="#4E4E4E"/>
</g>
</g>
</svg>
